<?xml version="1.0" encoding="UTF-8" standalone="no"?>
<svg
   xmlns:dc="http://purl.org/dc/elements/1.1/"
   xmlns:cc="http://creativecommons.org/ns#"
   xmlns:rdf="http://www.w3.org/1999/02/22-rdf-syntax-ns#"
   xmlns:svg="http://www.w3.org/2000/svg"
   xmlns="http://www.w3.org/2000/svg"
   xmlns:sodipodi="http://sodipodi.sourceforge.net/DTD/sodipodi-0.dtd"
   xmlns:inkscape="http://www.inkscape.org/namespaces/inkscape"
   inkscape:version="1.0beta2 (2b71d25, 2019-12-03)"
   sodipodi:docname="cbbc-logo-light.svg"
   id="svg842"
   width="173.62196mm"
   height="45.692829mm"
   viewBox="0 0 173.62196 45.692829"
   version="1.1">
  <sodipodi:namedview
     inkscape:current-layer="svg842"
     inkscape:window-maximized="1"
     inkscape:window-y="23"
     inkscape:window-x="0"
     inkscape:cy="86.348648"
     inkscape:cx="328.1045"
     inkscape:zoom="1.3715143"
     fit-margin-bottom="0"
     fit-margin-right="0"
     fit-margin-left="0"
     fit-margin-top="0"
     inkscape:pagecheckerboard="true"
     showborder="false"
     inkscape:showpageshadow="false"
     showgrid="false"
     id="namedview844"
     inkscape:window-height="855"
     inkscape:window-width="1440"
     inkscape:pageshadow="2"
     inkscape:pageopacity="0"
     guidetolerance="10"
     gridtolerance="10"
     objecttolerance="10"
     borderopacity="1"
     inkscape:document-rotation="0"
     bordercolor="#666666"
     pagecolor="#ffffff" />
  <metadata
     id="metadata846">
    <rdf:RDF>
      <cc:Work
         rdf:about="">
        <dc:format>image/svg+xml</dc:format>
        <dc:type
           rdf:resource="http://purl.org/dc/dcmitype/StillImage" />
        <dc:title></dc:title>
      </cc:Work>
    </rdf:RDF>
  </metadata>
  <defs
     id="defs2">
    <rect
       x="31.75"
       y="23.434525"
       width="117.5506"
       height="19.276787"
       id="rect34" />
    <rect
       x="44.979168"
       y="76.729164"
       width="24.190475"
       height="14.741072"
       id="rect28" />
    <rect
       x="85.422623"
       y="116.41667"
       width="93.738098"
       height="16.252975"
       id="rect22" />
    <rect
       x="60.476192"
       y="68.035713"
       width="162.90775"
       height="51.404762"
       id="rect12" />
  </defs>
  <g
     id="layer3">
    <path
       inkscape:connector-curvature="0"
       id="path295"
       style="font-style:normal;font-variant:normal;font-weight:500;font-stretch:normal;font-size:12.7px;line-height:1.25;font-family:Futura;-inkscape-font-specification:'Futura Medium';white-space:pre;shape-inside:url(#rect28);display:inline;fill:#f2f2f2;fill-opacity:1;stroke:none;stroke-width:3.77953"
       transform="matrix(0.26458333,0,0,0.26458333,-47.76711,-80.630218)"
       d="m 552.3418,439.89456 c -5.95314,0 -10.80469,2.21094 -14.55469,6.63281 -3.04688,3.60938 -4.57031,7.71874 -4.57031,12.32813 0,5.14061 1.82029,9.53126 5.46093,13.17187 3.65624,3.6094 8.07031,5.41407 13.24219,5.41407 3.43751,0 6.71876,-0.8828 9.84375,-2.64844 v -6.58594 c -0.89063,0.75001 -1.74219,1.39063 -2.55469,1.92188 -0.79687,0.53125 -1.57032,0.95313 -2.32031,1.26562 -1.34375,0.62501 -2.97655,0.9375 -4.89844,0.9375 -3.71875,0 -6.85938,-1.30468 -9.42187,-3.91406 -2.5625,-2.60936 -3.84375,-5.81249 -3.84375,-9.60938 0,-3.84373 1.28125,-7.09374 3.84375,-9.75 2.54687,-2.67187 5.67968,-4.00781 9.39844,-4.00781 3.37499,0 6.64061,1.32033 9.79687,3.96094 V 442.543 c -3.03125,-1.76562 -6.17188,-2.64844 -9.42187,-2.64844 z m -132.63282,0.0234 c -5.21874,0 -9.68749,1.82813 -13.40625,5.48437 -3.73437,3.65627 -5.60156,8.03126 -5.60156,13.125 0,5.79687 2.04687,10.48437 6.14063,14.0625 3.71875,3.2344 7.91406,4.85157 12.58593,4.85157 5.28124,0 9.78907,-1.8203 13.52344,-5.46094 3.71875,-3.625 5.57813,-8.03906 5.57813,-13.24219 0,-5.17188 -1.85156,-9.60158 -5.55469,-13.28906 -3.68748,-3.68751 -8.10937,-5.53125 -13.26563,-5.53125 z m 42.98438,0 c -5.21875,0 -9.6875,1.82813 -13.40625,5.48437 -3.73438,3.65627 -5.60156,8.03126 -5.60156,13.125 0,5.79687 2.04686,10.48437 6.14062,14.0625 3.71873,3.2344 7.91404,4.85157 12.58594,4.85157 5.28123,0 9.78906,-1.8203 13.52344,-5.46094 3.71875,-3.625 5.57812,-8.03906 5.57812,-13.24219 0,-5.17188 -1.85155,-9.60158 -5.55469,-13.28906 -3.68748,-3.68751 -8.10936,-5.53125 -13.26562,-5.53125 z m -88.35938,0.67969 v 36.1875 h 8.27344 c 2.46875,0 4.52345,-0.22658 6.16406,-0.67969 1.50002,-0.46876 2.85157,-1.30469 4.05469,-2.50781 2,-1.95311 3,-4.34373 3,-7.17188 0,-2.15624 -0.56248,-4.04688 -1.6875,-5.67187 -1.10937,-1.64062 -2.62501,-2.78906 -4.54687,-3.44532 1.98435,-1.79688 2.97656,-3.9922 2.97656,-6.58593 0,-1.42189 -0.3047,-2.82814 -0.91406,-4.21875 -0.59377,-1.375 -1.39846,-2.52344 -2.41407,-3.44532 -1,-0.89063 -2.22656,-1.52343 -3.67968,-1.89843 -1.4375,-0.37501 -3.36719,-0.5625 -5.78907,-0.5625 z m 114.09375,0 v 36.1875 h 5.46094 v -14.97657 l 1.125,-1.125 13.03125,16.10157 h 7.3125 l -16.45312,-19.80469 16.35937,-16.38281 h -7.28906 l -14.08594,14.4375 v -14.4375 z m 80.25,0 v 36.1875 h 16.10157 v -5.13282 h -10.64063 v -31.05468 z m 20.15625,0 v 23.29687 c 0,3.81249 1.18752,6.95311 3.5625,9.42188 2.65626,2.75001 5.92967,4.125 9.82032,4.125 3.89062,0 7.17187,-1.37499 9.84375,-4.125 2.375,-2.46877 3.5625,-5.60939 3.5625,-9.42188 v -23.29687 h -5.46094 v 21.79687 c 0,3.15626 -0.50783,5.4297 -1.52344,6.82031 -1.51564,2.07814 -3.65627,3.11719 -6.42187,3.11719 -2.75001,0 -4.88282,-1.03905 -6.39844,-3.11719 -1.01564,-1.43748 -1.52344,-3.71092 -1.52344,-6.82031 v -21.79687 z m 35.4375,0 v 36.1875 h 8.27344 c 2.46876,0 4.52345,-0.22658 6.16406,-0.67969 1.5,-0.46876 2.85157,-1.30469 4.05469,-2.50781 2,-1.95311 3,-4.34373 3,-7.17188 0,-2.15624 -0.56251,-4.04688 -1.6875,-5.67187 -1.10939,-1.64062 -2.62501,-2.78906 -4.54687,-3.44532 1.98437,-1.79688 2.97656,-3.9922 2.97656,-6.58593 0,-1.42189 -0.30468,-2.82814 -0.91406,-4.21875 -0.59374,-1.375 -1.39843,-2.52344 -2.41407,-3.44532 -0.99998,-0.89063 -2.22656,-1.52343 -3.67968,-1.89843 -1.43751,-0.37501 -3.36719,-0.5625 -5.78907,-0.5625 z m -204.63281,4.45312 c 3.78124,0 6.95313,1.31252 9.51563,3.9375 2.57814,2.60939 3.86718,5.84375 3.86718,9.70313 0,3.81248 -1.30467,7.04687 -3.91406,9.70312 -2.60938,2.62501 -5.81251,3.9375 -9.60937,3.9375 -3.5,0 -6.58594,-1.28907 -9.25782,-3.86719 -2.68749,-2.57814 -4.03125,-5.86718 -4.03125,-9.86718 0,-3.81249 1.29689,-7.01561 3.89063,-9.60938 2.59374,-2.62498 5.77342,-3.9375 9.53906,-3.9375 z m 42.98438,0 c 3.78124,0 6.95313,1.31252 9.51562,3.9375 2.57812,2.60939 3.86719,5.84375 3.86719,9.70313 0,3.81248 -1.3047,7.04687 -3.91406,9.70312 -2.60939,2.62501 -5.81252,3.9375 -9.60938,3.9375 -3.49999,0 -6.58594,-1.28907 -9.25781,-3.86719 -2.68752,-2.57814 -4.03125,-5.86718 -4.03125,-9.86718 0,-3.81249 1.29686,-7.01561 3.89062,-9.60938 2.59374,-2.62498 5.77342,-3.9375 9.53907,-3.9375 z m -82.82813,0.5625 h 1.92188 c 1.84375,0 3.25,0.44531 4.21875,1.33594 0.96875,0.87501 1.45312,2.16408 1.45312,3.86719 0,1.75002 -0.47656,3.07814 -1.42969,3.98437 -0.93749,0.89063 -2.42187,1.33594 -4.45312,1.33594 h -1.71094 z m 249.9375,0 h 1.92188 c 1.84373,0 3.24998,0.44531 4.21875,1.33594 0.96874,0.87501 1.45312,2.16408 1.45312,3.86719 0,1.75002 -0.47656,3.07814 -1.42969,3.98437 -0.93749,0.89063 -2.42188,1.33594 -4.45312,1.33594 h -1.71094 z m -249.9375,15.09375 h 2.76563 c 2.9375,0 4.97656,0.52344 6.11718,1.57031 1.17188,1.0625 1.75782,2.37502 1.75782,3.9375 0,1.60938 -0.60938,2.9375 -1.82813,3.98438 -1.15626,0.96877 -2.96875,1.45312 -5.4375,1.45312 h -3.375 z m 249.9375,0 h 2.76563 c 2.9375,0 4.97657,0.52344 6.11718,1.57031 1.17188,1.0625 1.75782,2.37502 1.75782,3.9375 0,1.60938 -0.60938,2.9375 -1.82813,3.98438 -1.15626,0.96877 -2.96876,1.45312 -5.4375,1.45312 h -3.375 z" />
    <path
       inkscape:connector-curvature="0"
       id="path267"
       style="font-style:normal;font-variant:normal;font-weight:500;font-stretch:normal;font-size:12.7px;line-height:1.25;font-family:Futura;-inkscape-font-specification:'Futura Medium';white-space:pre;shape-inside:url(#rect28);display:inline;fill:#f9f9f9;fill-opacity:1;stroke:none;stroke-width:3.77953"
       transform="matrix(0.26458333,0,0,0.26458333,-47.76711,-80.630218)"
       d="m 349.90234,349.33008 -15.23437,77.8125 h 11.29687 l 7.78125,-43.73438 20.8125,47.0625 21.42188,-47.01562 6.98437,43.6875 h 11.20313 l -13.6875,-77.8125 -25.73438,56.25 z m -130.875,4.03125 c -11.90625,0 -21.60937,4.42187 -29.10937,13.26562 -6.09375,7.21875 -9.14063,15.43751 -9.14063,24.65625 0,10.28128 3.64063,19.06252 10.92188,26.34375 7.3125,7.21875 16.14062,10.82813 26.48437,10.82813 6.875,0 13.4375,-1.76564 19.6875,-5.29688 v -13.17187 c -1.78124,1.49999 -3.48437,2.78125 -5.10937,3.84375 -1.59375,1.0625 -3.14063,1.90624 -4.64063,2.53125 -2.6875,1.24999 -5.95312,1.875 -9.79687,1.875 -7.4375,0 -13.71875,-2.60938 -18.84375,-7.82813 -5.125,-5.21874 -7.6875,-11.625 -7.6875,-19.21875 0,-7.68751 2.5625,-14.18751 7.6875,-19.5 5.09375,-5.34375 11.35937,-8.01562 18.79687,-8.01562 6.75,0 13.28125,2.64062 19.59375,7.92187 v -12.9375 c -6.06249,-3.53124 -12.34374,-5.29687 -18.84375,-5.29687 z m 273.375,0 c -11.90626,0 -21.60938,4.42187 -29.10937,13.26562 -6.09376,7.21875 -9.14063,15.43751 -9.14063,24.65625 0,10.28128 3.64062,19.06252 10.92188,26.34375 7.3125,7.21875 16.14064,10.82813 26.48437,10.82813 6.87501,0 13.4375,-1.76564 19.6875,-5.29688 v -13.17187 c -1.78126,1.49999 -3.48438,2.78125 -5.10937,3.84375 -1.59375,1.0625 -3.14063,1.90624 -4.64063,2.53125 -2.68749,1.24999 -5.95312,1.875 -9.79687,1.875 -7.43751,0 -13.71876,-2.60938 -18.84375,-7.82813 -5.12502,-5.21874 -7.6875,-11.625 -7.6875,-19.21875 0,-7.68751 2.56248,-14.18751 7.6875,-19.5 5.09374,-5.34375 11.35937,-8.01562 18.79687,-8.01562 6.74999,0 13.28124,2.64062 19.59375,7.92187 v -12.9375 c -6.06251,-3.53124 -12.34377,-5.29687 -18.84375,-5.29687 z m -206.67187,0.0469 c -10.4375,0 -19.375,3.65625 -26.8125,10.96875 -7.46875,7.3125 -11.20313,16.06251 -11.20313,26.25 0,11.59375 4.09375,20.96874 12.28125,28.125 7.4375,6.46874 15.82813,9.70313 25.17188,9.70313 10.5625,0 19.57812,-3.64064 27.04687,-10.92188 7.4375,-7.25001 11.15625,-16.07812 11.15625,-26.48437 0,-10.34375 -3.70312,-19.20313 -11.10937,-26.57813 -7.375,-7.375 -16.21875,-11.0625 -26.53125,-11.0625 z m 359.71875,0 c -10.43749,0 -19.375,3.65625 -26.8125,10.96875 -7.46875,7.3125 -11.20313,16.06251 -11.20313,26.25 0,11.59375 4.09376,20.96874 12.28125,28.125 7.43751,6.46874 15.82813,9.70313 25.17188,9.70313 10.56249,0 19.57812,-3.64064 27.04687,-10.92188 7.43751,-7.25001 11.15625,-16.07812 11.15625,-26.48437 0,-10.34375 -3.70314,-19.20313 -11.10937,-26.57813 -7.37502,-7.375 -16.21876,-11.0625 -26.53125,-11.0625 z m 85.96875,0 c -10.43749,0 -19.375,3.65625 -26.8125,10.96875 -7.46875,7.3125 -11.20313,16.06251 -11.20313,26.25 0,11.59375 4.09374,20.96874 12.28125,28.125 7.43748,6.46874 15.82813,9.70313 25.17188,9.70313 10.56252,0 19.57812,-3.64064 27.04687,-10.92188 7.43748,-7.25001 11.15625,-16.07812 11.15625,-26.48437 0,-10.34375 -3.70314,-19.20313 -11.10937,-26.57813 -7.37499,-7.375 -16.21873,-11.0625 -26.53125,-11.0625 z m -301.96875,1.35938 v 72.375 h 10.92187 v -72.375 z m 125.25,0 v 72.375 h 16.54687 c 4.9375,0 9.04687,-0.45312 12.32813,-1.35938 2.99999,-0.9375 5.70312,-2.60937 8.10937,-5.01562 4,-3.90624 6,-8.68749 6,-14.34375 0,-4.31249 -1.12499,-8.09374 -3.375,-11.34375 -2.21873,-3.28124 -5.24999,-5.57812 -9.09375,-6.89063 3.96876,-3.59375 5.95313,-7.98437 5.95313,-13.17187 0,-2.84375 -0.60935,-5.65625 -1.82813,-8.4375 -1.18747,-2.75 -2.79685,-5.04688 -4.82812,-6.89063 -2,-1.78125 -4.45315,-3.04687 -7.35938,-3.79687 -2.87501,-0.75 -6.73438,-1.125 -11.57812,-1.125 z m 228.1875,0 v 72.375 h 10.92187 v -29.95313 l 2.25,-2.25 26.0625,32.20313 h 14.625 l -32.90625,-39.60938 32.71875,-32.76562 h -14.57812 l -28.17188,28.875 v -28.875 z m -497.29688,8.90625 c 7.5625,0 13.90625,2.625 19.03125,7.875 5.15625,5.21875 7.73438,11.68749 7.73438,19.40625 0,7.62499 -2.60938,14.09374 -7.82813,19.40625 -5.21875,5.24999 -11.625,7.875 -19.21875,7.875 -7,0 -13.17187,-2.57814 -18.51562,-7.73438 -5.375,-5.15626 -8.0625,-11.73437 -8.0625,-19.73437 0,-7.625 2.59375,-14.03124 7.78125,-19.21875 5.1875,-5.25 11.54687,-7.875 19.07812,-7.875 z m 359.71875,0 c 7.56251,0 13.90626,2.625 19.03125,7.875 5.15626,5.21875 7.73438,11.68749 7.73438,19.40625 0,7.62499 -2.60938,14.09374 -7.82813,19.40625 -5.21874,5.24999 -11.625,7.875 -19.21875,7.875 -7.00001,0 -13.17187,-2.57814 -18.51562,-7.73438 -5.37499,-5.15626 -8.0625,-11.73437 -8.0625,-19.73437 0,-7.625 2.59375,-14.03124 7.78125,-19.21875 5.1875,-5.25 11.54689,-7.875 19.07812,-7.875 z m 85.96875,0 c 7.56251,0 13.90624,2.625 19.03125,7.875 5.15624,5.21875 7.73438,11.68749 7.73438,19.40625 0,7.62499 -2.60938,14.09374 -7.82813,19.40625 -5.21874,5.24999 -11.625,7.875 -19.21875,7.875 -6.99998,0 -13.17185,-2.57814 -18.51562,-7.73438 -5.37499,-5.15626 -8.0625,-11.73437 -8.0625,-19.73437 0,-7.625 2.59375,-14.03124 7.78125,-19.21875 5.1875,-5.25 11.54689,-7.875 19.07812,-7.875 z m -165.65625,1.125 h 3.84375 c 3.68751,0 6.50002,0.89062 8.4375,2.67187 1.93752,1.75 2.90625,4.32813 2.90625,7.73438 0,3.49999 -0.95313,6.15624 -2.85937,7.96875 -1.87502,1.78124 -4.84376,2.67187 -8.90625,2.67187 h -3.42188 z m 0,30.1875 h 5.53125 c 5.875,0 9.95313,1.04687 12.23438,3.14062 2.34373,2.125 3.51562,4.75001 3.51562,7.875 0,3.21875 -1.21875,5.875 -3.65625,7.96875 -2.31249,1.93749 -5.9375,2.90625 -10.875,2.90625 h -6.75 z" />
    <path
       inkscape:connector-curvature="0"
       id="path128"
       style="font-style:normal;font-variant:normal;font-weight:500;font-stretch:normal;font-size:12.7px;line-height:1.25;font-family:Futura;-inkscape-font-specification:'Futura Medium';white-space:pre;shape-inside:url(#rect28);display:inline;fill:#f2f2f2;fill-opacity:1;stroke:none;stroke-width:3.77953"
       transform="matrix(0.26458333,0,0,0.26458333,-47.76711,-80.630218)"
       d="m 180.53711,304.74414 v 5.13281 h 8.32031 v 31.05469 h 5.46094 v -31.05469 h 8.29687 v -5.13281 z m 26.95312,0 v 36.1875 h 5.46094 V 324.0332 h 15.60938 v 16.89844 h 5.46093 v -36.1875 h -5.46093 v 14.15625 h -15.60938 v -14.15625 z m 35.25,0 v 36.1875 h 19.96875 v -5.13281 h -14.50781 v -12.09375 h 14.08594 v -5.13281 h -14.08594 v -8.69532 h 14.50781 v -5.13281 z" />
  </g>
</svg>
